<svg xmlns="http://www.w3.org/2000/svg" fill="none" viewBox="0 0 100 100"><path fill="#2684FF" d="M95.823 0H47.668a21.74 21.74 0 0 0 21.738 21.738h8.87v8.565c.008 11.994 9.73 21.716 21.724 21.724V4.177A4.18 4.18 0 0 0 95.823 0"/><path fill="url(#a)" d="M71.996 23.994H23.84c.008 11.994 9.729 21.716 21.724 21.724h8.87v8.592c.016 11.995 9.744 21.71 21.739 21.71V28.172a4.18 4.18 0 0 0-4.178-4.178"/><path fill="url(#b)" d="M48.155 47.974H0c0 12.005 9.733 21.738 21.738 21.738h8.898v8.564C30.644 90.26 40.35 99.977 52.333 100V52.152a4.18 4.18 0 0 0-4.178-4.178"/><defs><linearGradient id="a" x1="75.143" x2="54.783" y1="24.078" y2="45.322" gradientUnits="userSpaceOnUse"><stop offset=".18" stop-color="#0052CC"/><stop offset="1" stop-color="#2684FF"/></linearGradient><linearGradient id="b" x1="52.681" x2="29.129" y1="48.211" y2="71.382" gradientUnits="userSpaceOnUse"><stop offset=".18" stop-color="#0052CC"/><stop offset="1" stop-color="#2684FF"/></linearGradient></defs></svg>